<svg xmlns="http://www.w3.org/2000/svg" version="1.1" xmlns:xlink="http://www.w3.org/1999/xlink" xmlns:svgjs="http://svgjs.dev/svgjs" width="100%" height="100%" viewBox="0 0 1000 600"><rect width="1000" height="600" x="0" y="0" fill="#0000ff"/><g><rect width="333.3333333333333" height="333.3333333333333" rx="13.333333333333334" ry="13.333333333333334" y="442.3629958682507" fill="#ffff00" transform="matrix(0.29751934529473445,0,0,0.2975193452947344,0,118.80189728914928)" x="420.1407470703125"/><path d="M571.3015863673373 684.0296555520687L554.8322968244624 684.0296555520687L554.8322968244624 616.1653436148839L478.5075271879215 616.1653436148839L478.5075271879215 684.0296555520687L461.82747891232236 684.0296555520687L461.82747891232236 534.0296546332336L478.5075271879215 534.0296546332336L478.5075271879215 601.2315819818566L554.8322968244624 601.2315819818566L554.8322968244624 534.0296546332336L571.3015863673373 534.0296546332336L571.3015863673373 684.0296555520687ZM608.1542562036791 684.0296555520687L608.1542562036791 534.0296546332336L662.5601176369057 534.0296546332336Q684.9005433056683 534.0296546332336 696.0707561400498 543.2428220923189Q707.2108605840419 552.4559895514044 707.2108605840419 572.1769852563094L707.2108605840419 572.1769852563094Q707.2108605840419 586.26771195844 702.3333013409966 594.1862186307912Q697.4557420979514 602.0746169127533 687.9414907349743 606.6510922519068L687.9414907349743 606.6510922519068Q711.7873359231954 614.8706828281497 711.7873359231954 641.968234178401L711.7873359231954 641.968234178401Q711.7873359231954 664.5194185798878 699.8644133290849 674.2745370659782Q687.9414907349743 684.0296555520687 665.3903063334875 684.0296555520687L665.3903063334875 684.0296555520687L608.1542562036791 684.0296555520687ZM663.6440196909158 615.0814415608738L663.6440196909158 615.0814415608738L624.8343044792781 615.0814415608738L624.8343044792781 669.2765442613763L664.7279217449258 669.2765442613763Q679.4810330356181 669.2765442613763 687.1586725848559 663.1043242315968Q694.8664205244829 656.9321042018174 694.8664205244829 641.3359579802284L694.8664205244829 641.3359579802284Q694.8664205244829 633.0862590135964 691.7351479240094 627.455990010822Q688.5737669331469 621.8257210080475 683.3650153958208 619.417049776914L683.3650153958208 619.417049776914Q673.8507640328437 615.0814415608738 663.6440196909158 615.0814415608738ZM661.9278414387331 548.7526575335366L661.9278414387331 548.7526575335366L624.8343044792781 548.7526575335366L624.8343044792781 600.5691973932949L663.4332609581916 600.5691973932949Q677.313228927598 600.5691973932949 683.6962076901017 593.945351507678Q690.1092948429944 587.3516140124501 690.1092948429944 574.0135970700487Q690.1092948429944 560.6755801276472 683.2746902246533 554.7141188305919Q676.4400856063121 548.7526575335366 661.9278414387331 548.7526575335366Z " fill="#0000ff" transform="matrix(0.29751934529473445,0,0,0.2975193452947344,0,118.80189728914928)"/><path d="M940.8516675672676 681.9693659873028L925.1992454201636 681.9693659873028L925.1992454201636 617.4710853299493L852.6601409541518 617.4710853299493L852.6601409541518 681.9693659873028L836.807413587615 681.9693659873028L836.807413587615 539.4092798138624L852.6601409541518 539.4092798138624L852.6601409541518 603.27802978157L925.1992454201636 603.27802978157L925.1992454201636 539.4092798138624L940.8516675672676 539.4092798138624L940.8516675672676 681.9693659873028ZM1042.2061086002514 669.2070620063002L1042.2061086002514 669.2070620063002L1048.186650151887 668.5775313166544L1048.6158756221002 680.7389196393585Q1025.1229348857705 684.0296482443256 1008.4403716101551 684.0296482443256L1008.4403716101551 684.0296482443256Q986.1778772217697 684.0296482443256 976.906607065167 671.1528841379329Q967.6353369085643 658.2761200315404 967.6353369085643 631.091840251378L967.6353369085643 631.091840251378Q967.6353369085643 576.8949708791388 1010.7009590866107 576.8949708791388L1010.7009590866107 576.8949708791388Q1031.5040868762717 576.8949708791388 1041.805498161386 588.5412886375873Q1052.1069094465001 600.1876063960357 1052.1069094465001 625.1112986997423L1052.1069094465001 625.1112986997423L1051.2770735374215 636.8434615522335L983.2877590556682 636.8434615522335Q983.2877590556682 653.9552502980619 989.4686058267367 662.1963793261532Q995.6494525978052 670.4375083542445 1011.0157244314337 670.4375083542445Q1026.3533812337148 670.4375083542445 1042.2061086002514 669.2070620063002ZM983.0874538362355 624.4817680100965L1036.6547925188288 624.4817680100965Q1036.6547925188288 605.5386172580255 1030.5884058731506 597.6980986687997Q1024.4934041961246 589.8861951109216 1010.7868041806535 589.8861951109216Q997.1088191965297 589.8861951109216 990.1839816104252 598.1273241390129Q983.2877590556682 606.3684531671042 983.0874538362355 624.4817680100965L983.0874538362355 624.4817680100965ZM1091.6528827687994 681.9693659873028L1076.200765841128 681.9693659873028L1076.200765841128 578.9552531361617L1091.4525775493664 578.9552531361617L1091.4525775493664 592.9766184964558Q1109.3942022042736 580.6149249543189 1129.1671888654232 576.6946656597061L1129.1671888654232 576.6946656597061L1129.1671888654232 592.3470878068099Q1120.4968343671187 594.0067596249672 1111.1397191164733 597.497793449367Q1101.7539888344804 600.9888272737668 1096.8035884113563 603.6786402204355L1096.8035884113563 603.6786402204355L1091.6528827687994 606.3684531671042L1091.6528827687994 681.9693659873028ZM1162.961540886867 598.3276293584456L1162.961540886867 681.9693659873028L1147.5094239591958 681.9693659873028L1147.5094239591958 578.9552531361617L1162.7326206360867 578.9552531361617L1162.7326206360867 586.1662410357415Q1178.1847375637578 576.8949708791388 1192.8356336136978 576.8949708791388L1192.8356336136978 576.8949708791388Q1211.9790895852016 576.8949708791388 1219.6193029549945 587.3966873836857L1219.6193029549945 587.3966873836857Q1226.4010653843613 583.27612286964 1237.2175472337312 580.0998543900632Q1248.034029083101 576.8949708791388 1256.2751581111925 576.8949708791388L1256.2751581111925 576.8949708791388Q1276.8779806814205 576.8949708791388 1284.0031234869577 587.9117579479414Q1291.0996512611475 598.928545016744 1291.0996512611475 627.5721913956307L1291.0996512611475 627.5721913956307L1291.0996512611475 681.9693659873028L1275.6475343334764 681.9693659873028L1275.6475343334764 628.0014168658438Q1275.6475343334764 606.568758386537 1271.5269698194306 598.6423947032686Q1267.406405305385 590.6874159886527 1254.0145706347366 590.6874159886527L1254.0145706347366 590.6874159886527Q1247.2041931740223 590.6874159886527 1239.9932052744425 592.6618531516328Q1232.7822173748627 594.6076752832655 1228.8905731115974 596.4676523208557L1228.8905731115974 596.4676523208557L1224.9703138169843 598.3276293584456Q1227.6315117323056 605.1093917878125 1227.6315117323056 628.4020273047093L1227.6315117323056 628.4020273047093L1227.6315117323056 681.9693659873028L1212.1793948046343 681.9693659873028L1212.1793948046343 628.8026377435749Q1212.1793948046343 606.568758386537 1208.173290415979 598.6423947032686Q1204.1671860273234 590.6874159886527 1190.5464311058947 590.6874159886527L1190.5464311058947 590.6874159886527Q1183.9649738959606 590.6874159886527 1177.0687513412038 592.6618531516328Q1170.172528786447 594.6076752832655 1166.4525747112666 596.4676523208557L1166.4525747112666 596.4676523208557L1162.961540886867 598.3276293584456ZM1392.4540922941314 610.0597922109367L1392.4540922941314 610.0597922109367L1392.4540922941314 662.7972949844515Q1393.0836229837773 670.4375083542445 1404.415175397403 671.8682599216214L1404.415175397403 671.8682599216214L1403.785644707757 684.0296482443256Q1387.5323069023548 684.0296482443256 1379.2911778742632 675.7885192162344L1379.2911778742632 675.7885192162344Q1360.7486375610579 684.0296482443256 1342.2060972478525 684.0296482443256L1342.2060972478525 684.0296482443256Q1327.9844266681257 684.0296482443256 1320.573133549113 675.9888244356671Q1313.1332253987528 667.9480006270086 1313.1332253987528 652.9251091695505Q1313.1332253987528 637.8736026807449 1320.7734387685457 630.7770749065551Q1328.3850371069911 623.6519321010178 1344.6669899437409 622.0208753142081L1344.6669899437409 622.0208753142081L1377.00197536646 618.9304519286738L1377.00197536646 610.0597922109367Q1377.00197536646 599.5580757063899 1372.4808004135489 595.0369007534787Q1367.9596254606379 590.48711076922 1360.119106871412 590.48711076922L1360.119106871412 590.48711076922Q1343.6368488152293 590.48711076922 1325.9241444111028 592.5473930262427L1325.9241444111028 592.5473930262427L1319.5429924206014 593.1769237158886L1318.9134617309555 581.41614583205Q1341.5765665582067 576.8949708791388 1359.0889657429007 576.8949708791388Q1376.6013649275947 576.8949708791388 1384.527728610863 584.9357946877973Q1392.4540922941314 592.9766184964558 1392.4540922941314 610.0597922109367ZM1329.014567796637 652.0952732604718L1329.014567796637 652.0952732604718Q1329.014567796637 671.0384240125428 1344.6669899437409 671.0384240125428L1344.6669899437409 671.0384240125428Q1358.6883553040352 671.0384240125428 1372.2804951941162 666.3169438401989L1372.2804951941162 666.3169438401989L1377.00197536646 664.6572720220415L1377.00197536646 630.662614781165L1346.526966981331 633.5527329472663Q1337.2556968247281 634.3825688563451 1333.1351323106826 638.9037438092562Q1329.014567796637 643.453533793515 1329.014567796637 652.0952732604718ZM1438.4098326382796 598.3276293584456L1438.4098326382796 681.9693659873028L1422.9577157106082 681.9693659873028L1422.9577157106082 578.9552531361617L1438.2095274188464 578.9552531361617L1438.2095274188464 586.1662410357415Q1454.892090694462 576.8949708791388 1470.1439024027004 576.8949708791388L1470.1439024027004 576.8949708791388Q1490.7467249729286 576.8949708791388 1497.8432527471182 588.0262180733316Q1504.9683955526557 599.1574652675242 1504.9683955526557 627.5721913956307L1504.9683955526557 627.5721913956307L1504.9683955526557 681.9693659873028L1489.716583844417 681.9693659873028L1489.716583844417 628.0014168658438Q1489.716583844417 606.568758386537 1485.4815592049813 598.6423947032686Q1481.2751495968932 590.6874159886527 1467.4540894560316 590.6874159886527L1467.4540894560316 590.6874159886527Q1460.8726322460977 590.6874159886527 1453.5471842211277 592.6618531516328Q1446.2503512275052 594.6076752832655 1442.3300919328922 596.4676523208557L1442.3300919328922 596.4676523208557L1438.4098326382796 598.3276293584456ZM1549.0355438278661 598.3276293584456L1549.0355438278661 681.9693659873028L1533.5834269001948 681.9693659873028L1533.5834269001948 578.9552531361617L1548.835238608433 578.9552531361617L1548.835238608433 586.1662410357415Q1565.5178018840484 576.8949708791388 1580.769613592287 576.8949708791388L1580.769613592287 576.8949708791388Q1601.3724361625152 576.8949708791388 1608.4975789680525 588.0262180733316Q1615.594106742242 599.1574652675242 1615.594106742242 627.5721913956307L1615.594106742242 627.5721913956307L1615.594106742242 681.9693659873028L1600.3422950340037 681.9693659873028L1600.3422950340037 628.0014168658438Q1600.3422950340037 606.568758386537 1596.1358854259156 598.6423947032686Q1591.9008607864798 590.6874159886527 1578.1084156769657 590.6874159886527L1578.1084156769657 590.6874159886527Q1571.498343435684 590.6874159886527 1564.2015104420616 592.6618531516328Q1556.8760624170918 594.6076752832655 1552.9558031224788 596.4676523208557L1552.9558031224788 596.4676523208557L1549.0355438278661 598.3276293584456ZM1705.8459156123808 632.522591818755L1643.4079172120503 632.522591818755L1643.4079172120503 618.1006160195952L1705.8459156123808 618.1006160195952L1705.8459156123808 632.522591818755ZM1737.1507599065885 681.9693659873028L1737.1507599065885 539.4092798138624L1788.858121551592 539.4092798138624Q1810.0904748114663 539.4092798138624 1820.7066514414032 548.1654794062094Q1831.2942130399929 556.9216789985564 1831.2942130399929 575.6645245311946L1831.2942130399929 575.6645245311946Q1831.2942130399929 589.056359201843 1826.6585779616914 596.5821124462458Q1822.02294288339 604.079250659301 1812.9805929775675 608.428735424127L1812.9805929775675 608.428735424127Q1835.6436978048187 616.2406389820052 1835.6436978048187 641.9941671947905L1835.6436978048187 641.9941671947905Q1835.6436978048187 663.4268256740974 1824.3121453911933 672.6980958307Q1812.9805929775675 681.9693659873028 1791.5479344982607 681.9693659873028L1791.5479344982607 681.9693659873028L1737.1507599065885 681.9693659873028ZM1789.8882626801035 616.440944201438L1789.8882626801035 616.440944201438L1753.0034872731253 616.440944201438L1753.0034872731253 667.9480006270086L1790.918403808615 667.9480006270086Q1804.9397691689092 667.9480006270086 1812.2366021625317 662.081919200763Q1819.5620501875017 656.2158377745175 1819.5620501875017 641.3932515364922L1819.5620501875017 641.3932515364922Q1819.5620501875017 633.5527329472663 1816.5860869273574 628.2017220852765Q1813.5815086358662 622.8507112232867 1808.6311082127418 620.5615087154836L1808.6311082127418 620.5615087154836Q1799.5887583069193 616.440944201438 1789.8882626801035 616.440944201438ZM1788.2572058932938 553.402030142809L1788.2572058932938 553.402030142809L1753.0034872731253 553.402030142809L1753.0034872731253 602.6484990919241L1789.6879574606705 602.6484990919241Q1802.8794869118865 602.6484990919241 1808.9458735575647 596.3531921954655Q1815.0408752345907 590.0865003303543 1815.0408752345907 577.4100414433944Q1815.0408752345907 564.7335825564346 1808.545263118699 559.0678063496218Q1802.0496510028077 553.402030142809 1788.2572058932938 553.402030142809ZM1876.849342945275 681.9693659873028L1861.3972260176038 681.9693659873028L1861.3972260176038 578.9552531361617L1876.6204226944947 578.9552531361617L1876.6204226944947 592.9766184964558Q1894.5620473494018 580.6149249543189 1914.3350340105517 576.6946656597061L1914.3350340105517 576.6946656597061L1914.3350340105517 592.3470878068099Q1905.6932945435947 594.0067596249672 1896.3075642616018 597.497793449367Q1886.921833979609 600.9888272737668 1882.0000485878322 603.6786402204355L1882.0000485878322 603.6786402204355L1876.849342945275 606.3684531671042L1876.849342945275 681.9693659873028ZM1926.0671968630422 630.2620043422994Q1926.0671968630422 602.0189684022782 1936.1683029287242 589.4569696407085Q1946.2694089944052 576.8949708791388 1970.2774202949909 576.8949708791388Q1994.285431595576 576.8949708791388 2004.272077535867 589.4569696407085Q2014.2587234761586 602.0189684022782 2014.2587234761586 630.2620043422994Q2014.2587234761586 658.4764252509731 2004.787148100123 671.2673442633231Q1995.3155727240874 684.0296482443256 1970.1629601696004 684.0296482443256Q1945.0389626464612 684.0296482443256 1935.5673872704256 671.2673442633231Q1926.0671968630422 658.4764252509731 1926.0671968630422 630.2620043422994ZM1941.9485392609267 629.9472389974765Q1941.9485392609267 652.4958836993374 1947.414010248307 661.5668486365073Q1952.8508662043391 670.6378135736772 1970.2774202949909 670.6378135736772Q1987.6753593542944 670.6378135736772 1993.0263702162842 661.6813087618975Q1998.4059961096218 652.7248039501177 1998.4059961096218 630.0616991228667Q1998.4059961096218 607.3985942956156 1992.425454557986 598.8426999227013Q1986.4449130063504 590.2868055497871 1970.2774202949909 590.2868055497871Q1954.109927583631 590.2868055497871 1948.0149259066052 598.8426999227013Q1941.9485392609267 607.3985942956156 1941.9485392609267 629.9472389974765ZM2077.927168224433 576.8949708791388L2077.927168224433 576.8949708791388Q2084.7089306538 576.8949708791388 2100.99088349055 579.3558635750271L2100.99088349055 579.3558635750271L2105.941283913674 579.985394264673L2105.3117532240285 592.5473930262427Q2088.829495167846 590.6874159886527 2081.0175916099674 590.6874159886527L2081.0175916099674 590.6874159886527Q2063.5051924252734 590.6874159886527 2057.209885528815 599.0430051421341Q2050.943193663704 607.3985942956156 2050.943193663704 629.9472389974765Q2050.943193663704 652.4958836993374 2056.809275089949 661.3665434170746Q2062.675356516195 670.2372031348117 2081.2178968294 670.2372031348117L2081.2178968294 670.2372031348117L2105.5406734748085 668.3772260972216L2106.1415891331067 681.1395300782242Q2086.998133161603 684.0296482443256 2077.49794275422 684.0296482443256L2077.49794275422 684.0296482443256Q2053.404086359592 684.0296482443256 2044.2472763283795 671.6679547021886Q2035.0618512658193 659.3062611600517 2035.0618512658193 629.9472389974765Q2035.0618512658193 600.5882168349012 2044.962652112068 588.74159385702Q2054.8348379269687 576.8949708791388 2077.927168224433 576.8949708791388ZM2144.6860363582423 634.7831792952106L2144.6860363582423 681.9693659873028L2129.233919430571 681.9693659873028L2129.233919430571 534.0296539205251L2144.6860363582423 534.0296539205251L2144.6860363582423 621.3913446245622L2160.739068944212 620.5615087154836L2190.212551232177 578.9552531361617L2207.724950416871 578.9552531361617L2174.13090361486 626.3417450476866L2209.155701984248 681.9693659873028L2191.643302799554 681.9693659873028L2160.9393741636445 634.1822636369122L2144.6860363582423 634.7831792952106ZM2243.3506644445574 598.3276293584456L2243.3506644445574 681.9693659873028L2227.898547516886 681.9693659873028L2227.898547516886 578.9552531361617L2243.1503592251247 578.9552531361617L2243.1503592251247 586.1662410357415Q2258.6024761527956 576.8949708791388 2273.2247571713883 576.8949708791388L2273.2247571713883 576.8949708791388Q2292.3968281742395 576.8949708791388 2300.008426512685 587.3966873836857L2300.008426512685 587.3966873836857Q2306.8188039733996 583.27612286964 2317.635285822769 580.0998543900632Q2328.451767672139 576.8949708791388 2336.6928967002304 576.8949708791388L2336.6928967002304 576.8949708791388Q2357.2957192704584 576.8949708791388 2364.3922470446482 587.9117579479414Q2371.5173898501857 598.928545016744 2371.5173898501857 627.5721913956307L2371.5173898501857 627.5721913956307L2371.5173898501857 681.9693659873028L2356.065272922514 681.9693659873028L2356.065272922514 628.0014168658438Q2356.065272922514 606.568758386537 2351.9447084084686 598.6423947032686Q2347.824143894423 590.6874159886527 2334.4323092237746 590.6874159886527L2334.4323092237746 590.6874159886527Q2327.6219317630603 590.6874159886527 2320.4109438634805 592.6618531516328Q2313.1999559639007 594.6076752832655 2309.2796966692877 596.4676523208557L2309.2796966692877 596.4676523208557L2305.3880524060223 598.3276293584456Q2308.0492503213436 605.1093917878125 2308.0492503213436 628.4020273047093L2308.0492503213436 628.4020273047093L2308.0492503213436 681.9693659873028L2292.5971333936723 681.9693659873028L2292.5971333936723 628.8026377435749Q2292.5971333936723 606.568758386537 2288.591029005017 598.6423947032686Q2284.556309585014 590.6874159886527 2270.9641696949325 590.6874159886527L2270.9641696949325 590.6874159886527Q2264.3827124849986 590.6874159886527 2257.486489930242 592.6618531516328Q2250.561652344137 594.6076752832655 2246.8703133003046 596.4676523208557L2246.8703133003046 596.4676523208557L2243.3506644445574 598.3276293584456ZM2472.8718308831694 610.0597922109367L2472.8718308831694 610.0597922109367L2472.8718308831694 662.7972949844515Q2473.5013615728153 670.4375083542445 2484.8329139864404 671.8682599216214L2484.8329139864404 671.8682599216214L2484.203383296795 684.0296482443256Q2467.921430460045 684.0296482443256 2459.680301431954 675.7885192162344L2459.680301431954 675.7885192162344Q2441.137761118748 684.0296482443256 2422.595220805543 684.0296482443256L2422.595220805543 684.0296482443256Q2408.4021652571637 684.0296482443256 2400.9622571068035 675.9888244356671Q2393.5509639877905 667.9480006270086 2393.5509639877905 652.9251091695505Q2393.5509639877905 637.8736026807449 2401.191177357584 630.7770749065551Q2408.802775696029 623.6519321010178 2425.0847285327786 622.0208753142081L2425.0847285327786 622.0208753142081L2457.4197139554985 618.9304519286738L2457.4197139554985 610.0597922109367Q2457.4197139554985 599.5580757063899 2452.898539002587 595.0369007534787Q2448.348749018328 590.48711076922 2440.5368454604504 590.48711076922L2440.5368454604504 590.48711076922Q2424.0545874042673 590.48711076922 2406.3418830001406 592.5473930262427L2406.3418830001406 592.5473930262427L2399.932115978292 593.1769237158886L2399.3312003199935 581.41614583205Q2421.9943051472446 576.8949708791388 2439.5067043319386 576.8949708791388Q2457.0191035166326 576.8949708791388 2464.945467199901 584.9357946877973Q2472.8718308831694 592.9766184964558 2472.8718308831694 610.0597922109367ZM2409.432306385675 652.0952732604718L2409.432306385675 652.0952732604718Q2409.432306385675 671.0384240125428 2425.0847285327786 671.0384240125428L2425.0847285327786 671.0384240125428Q2439.0774788617255 671.0384240125428 2452.698233783154 666.3169438401989L2452.698233783154 666.3169438401989L2457.4197139554985 664.6572720220415L2457.4197139554985 630.662614781165L2426.944705570369 633.5527329472663Q2417.6734354137666 634.3825688563451 2413.5528708997203 638.9037438092562Q2409.432306385675 643.453533793515 2409.432306385675 652.0952732604718ZM2518.827571227317 598.3276293584456L2518.827571227317 681.9693659873028L2503.375454299646 681.9693659873028L2503.375454299646 578.9552531361617L2518.6272660078844 578.9552531361617L2518.6272660078844 586.1662410357415Q2535.3098292835 576.8949708791388 2550.5616409917384 576.8949708791388L2550.5616409917384 576.8949708791388Q2571.1644635619664 576.8949708791388 2578.2609913361566 588.0262180733316Q2585.357519110346 599.1574652675242 2585.357519110346 627.5721913956307L2585.357519110346 627.5721913956307L2585.357519110346 681.9693659873028L2570.134322433455 681.9693659873028L2570.134322433455 628.0014168658438Q2570.134322433455 606.568758386537 2565.8992977940193 598.6423947032686Q2561.6642731545835 590.6874159886527 2547.87182804507 590.6874159886527L2547.87182804507 590.6874159886527Q2541.2903708351355 590.6874159886527 2533.9649228101657 592.6618531516328Q2526.6394747851955 594.6076752832655 2522.74783052193 596.4676523208557L2522.74783052193 596.4676523208557L2518.827571227317 598.3276293584456ZM2629.453282416904 598.3276293584456L2629.453282416904 681.9693659873028L2614.001165489233 681.9693659873028L2614.001165489233 578.9552531361617L2629.252977197471 578.9552531361617L2629.252977197471 586.1662410357415Q2645.935540473087 576.8949708791388 2661.1873521813245 576.8949708791388L2661.1873521813245 576.8949708791388Q2681.790174751553 576.8949708791388 2688.8867025257427 588.0262180733316Q2696.0118453312803 599.1574652675242 2696.0118453312803 627.5721913956307L2696.0118453312803 627.5721913956307L2696.0118453312803 681.9693659873028L2680.7600336230416 681.9693659873028L2680.7600336230416 628.0014168658438Q2680.7600336230416 606.568758386537 2676.525008983606 598.6423947032686Q2672.318599375518 590.6874159886527 2658.4975392346564 590.6874159886527L2658.4975392346564 590.6874159886527Q2651.916082024722 590.6874159886527 2644.5906339997523 592.6618531516328Q2637.29380100613 594.6076752832655 2633.373541711517 596.4676523208557L2633.373541711517 596.4676523208557L2629.453282416904 598.3276293584456ZM2740.5082190767034 681.9693659873028L2723.6253505816553 681.9693659873028L2723.6253505816553 658.4764252509731L2740.5082190767034 658.4764252509731L2740.5082190767034 681.9693659873028ZM2807.667697649378 576.8949708791388L2807.667697649378 576.8949708791388Q2814.4780751100925 576.8949708791388 2830.7600279468425 579.3558635750271L2830.7600279468425 579.3558635750271L2835.681813338619 579.985394264673L2835.080897680321 592.5473930262427Q2818.5986396241383 590.6874159886527 2810.7581210349126 590.6874159886527L2810.7581210349126 590.6874159886527Q2793.2457218502186 590.6874159886527 2786.9790299851074 599.0430051421341Q2780.6837230886485 607.3985942956156 2780.6837230886485 629.9472389974765Q2780.6837230886485 652.4958836993374 2786.5498045148943 661.3665434170746Q2792.4158859411395 670.2372031348117 2810.958426254345 670.2372031348117L2810.958426254345 670.2372031348117L2835.281202899753 668.3772260972216L2835.9107335893996 681.1395300782242Q2816.738662586548 684.0296482443256 2807.2670872105127 684.0296482443256L2807.2670872105127 684.0296482443256Q2783.144615784537 684.0296482443256 2773.987805753324 671.6679547021886Q2764.8309957221118 659.3062611600517 2764.8309957221118 629.9472389974765Q2764.8309957221118 600.5882168349012 2774.703181537013 588.74159385702Q2784.603982383261 576.8949708791388 2807.667697649378 576.8949708791388ZM2874.4265657831875 596.8682627597211L2874.4265657831875 681.9693659873028L2858.9744488555157 681.9693659873028L2858.9744488555157 534.0296539205251L2874.4265657831875 534.0296539205251L2874.4265657831875 584.7354894683646Q2890.9088238393697 576.8949708791388 2906.160635547608 576.8949708791388L2906.160635547608 576.8949708791388Q2926.7634581178363 576.8949708791388 2933.859985892026 588.0262180733316Q2940.985128697563 599.1574652675242 2940.985128697563 627.5721913956307L2940.985128697563 627.5721913956307L2940.985128697563 681.9693659873028L2925.533011769892 681.9693659873028L2925.533011769892 628.0014168658438Q2925.533011769892 606.568758386537 2921.2979871304565 598.6423947032686Q2917.0629624910202 590.6874159886527 2903.4708226009393 590.6874159886527L2903.4708226009393 590.6874159886527Q2890.5082134005042 590.6874159886527 2878.3468250778 595.4375111923442L2878.3468250778 595.4375111923442L2874.4265657831875 596.8682627597211Z " fill="#ffff00" transform="matrix(0.29751934529473445,0,0,0.2975193452947344,0,118.80189728914928)"/></g></svg>